<svg version="1.1" id="RGB" xmlns="http://www.w3.org/2000/svg" x="0" y="0" viewBox="0 0 1500 147.6" xml:space="preserve"><style>.st0{fill:#3f3e40}</style><path class="st0" d="M336.4 72.3v24.8h31.5l-49 49H354l31.4-31.4v31.4h24.8V72.3z"/><path class="st0" d="M293.6 126c-28.6-29-28.3-75.7.7-104.3 28.7-28.3 74.9-28.3 103.6 0l-20 20c-18.4-17.2-47.2-16.2-64.4 2.2-16.3 17.5-16.3 44.6 0 62.1l-19.9 20zM232.5 112.3h-58.1l-12.3 33.9h-31L184.9 2.6H222l53.8 143.6h-31.2l-12.1-33.9zm-10.3-27.9-18.9-52.1-18.9 52.1h37.8zM540.2 104.7c0 26.3-18.9 41.4-48.4 41.4h-63.4V2.5h63c26.5 0 43.9 12.7 43.9 37.4 0 14.4-6.2 23-17.8 28.9 15.3 5.1 22.7 19.1 22.7 35.9zm-52.7-74.3h-29.8v28.9h30.6c12.1 0 17.4-4.9 17.4-14.6.1-10.4-5.9-14.3-18.2-14.3zm23 70.9c0-9.4-4.3-16.6-19.5-16.6h-33.3v33.5h33.4c15.1.1 19.4-6.7 19.4-16.9zM105.9 106l20 20c-28.8 28.8-75.5 28.8-104.3 0-.9-.8-1.7-1.7-2.5-2.6-1.6-1.8-3.1-3.7-4.6-5.6C5.1 105.1 0 89.7 0 73.9 0 63 2.4 52.2 7 42.3c.9-1.8 1.9-3.7 2.9-5.4 1.4-2.4 2.9-4.8 4.5-7.1 1.4-1.9 3-3.8 4.6-5.6.8-.9 1.7-1.8 2.6-2.7C50.4-7.2 97.1-7.2 126 21.5l-20 20c-17.9-17.6-46.7-17.6-64.5.1-1.1 1.1-2.1 2.2-3 3.3-.9 1.1-1.8 2.3-2.6 3.6-.8 1.2-1.6 2.5-2.3 3.8-1.1 2-2 4-2.7 6.1-.3.7-.5 1.4-.7 2.1-.5 1.4-.9 2.9-1.2 4.4-.3 1.4-.5 2.8-.6 4.2a38.663 38.663 0 0 0 0 9.6c.1 1.2.3 2.4.5 3.5.2 1 .4 1.9.7 2.9.3 1.4.7 2.8 1.2 4.2.7 2.1 1.7 4.2 2.7 6.1.6 1 1.2 2.1 1.8 3.1.3.5.7 1 1 1.5.7 1 1.4 1.9 2.1 2.8v.1c1 1.1 2 2.3 3 3.3 17.9 17.6 46.7 17.6 64.5-.2zM654.6 106l20 20c-28.8 28.8-75.5 28.8-104.3 0-.9-.8-1.7-1.7-2.5-2.6-1.6-1.8-3.1-3.7-4.6-5.6-9.4-12.7-14.5-28.1-14.5-43.9 0-10.9 2.4-21.7 7-31.6.9-1.8 1.9-3.7 2.9-5.4 1.4-2.4 2.9-4.8 4.5-7.1 1.4-1.9 3-3.8 4.6-5.6.8-.9 1.7-1.8 2.5-2.7 28.8-28.7 75.5-28.7 104.3 0l-20 20c-17.8-17.8-46.6-17.8-64.4 0-1.1 1.1-2.1 2.2-3 3.3-1.4 1.7 0 0 0 0-.9 1.1-1.8 2.3-2.6 3.6-.8 1.2-1.6 2.5-2.3 3.8-1.1 2-2 4-2.7 6.1-.3.7-.5 1.4-.7 2.1-.5 1.4-.8 2.9-1.1 4.3s-.5 2.8-.6 4.2a38.663 38.663 0 0 0 0 9.6c.1 1.2.3 2.4.5 3.5.2 1 .4 1.9.7 2.9.3 1.4.7 2.8 1.2 4.2.7 2.1 1.7 4.2 2.7 6.1.6 1 1.2 2.1 1.8 3.1.3.5.6 1 1 1.5.7 1 1.4 1.9 2.1 2.8v.1c1 1.1 2 2.3 3 3.3 17.9 17.7 46.7 17.7 64.5 0zM726.2 2.5v143.6h-4V2.5M814.7 45.2l10 1.3c-3.5 10.9-13.7 18.2-25.2 17.9-15.2 0-26.8-11.4-26.8-28.6s11.6-28.6 26.8-28.6c11.5-.2 21.8 7.2 25.2 18.2l-10 1.3c-2.4-6.3-8.5-10.4-15.2-10.1-10 0-16.8 7.4-16.8 19.1 0 12.1 6.7 19.2 16.8 19.2 6.7.5 12.8-3.5 15.2-9.7zM829.7 43.2c.1-11.6 9.6-20.9 21.2-20.8s20.9 9.6 20.8 21.2c-.1 11.5-9.5 20.8-21 20.8-11.4.2-20.8-9-21-20.4v-.8zm32.3 0c0-7.3-4.9-12.6-11.3-12.6-6.5 0-11.3 5.2-11.3 12.6s4.9 12.6 11.3 12.6S862 50.6 862 43.2zM887.3 22.7v5h.2c2.6-3.7 6.9-5.9 11.4-5.8 7.4 0 14.1 4.9 14.1 16.6v25.2h-9.3V39.6c0-6.3-2.7-9.3-7-9.3-5.5 0-9.3 4.2-9.3 10.1v23.1h-9.3V22.7h9.2zM937.9 64.4c-10.3 0-16.8-4.9-17.7-13.2h10.3c.6 3.4 3.8 5.7 7.3 5.3 3.7 0 6.6-1.4 6.6-3.9 0-2.9-3.2-3.9-9.1-5.2-6.6-1.5-14.3-3.7-14.3-12.7 0-7.1 6.9-12.7 15.7-12.7 9.3 0 15.9 5.2 16.8 13.1h-9.9c-.6-3.3-3.7-5.6-7-5.2-3.5 0-6 1.8-6 4.2 0 3.5 4.4 4.2 10.2 5.5 6.2 1.5 13.2 3.5 13.2 12.2-.2 7.3-6.8 12.6-16.1 12.6zM989.6 50.5l9.6 1.3c-3.8 9.3-10.5 12.6-18.9 12.6-11.8 0-20.5-8.4-20.5-21.2S968.6 22 979.7 22c11.1 0 20.5 7.7 20.5 24.2h-30.3c.2 5.6 4.9 10.1 10.5 10 4 .3 7.7-2 9.2-5.7zm-19.7-11.4H990c-.7-5.5-5.8-9.4-11.3-8.7-4.6.6-8.2 4.1-8.8 8.7zM1006.3 12.3c0-3.4 2.7-6.2 6.2-6.2 3.4 0 6.2 2.7 6.2 6.2 0 3.4-2.7 6.2-6.2 6.2s-6.2-2.8-6.2-6.2zm10.8 10.5v40.9h-9.3v-41l9.3.1zM1036.6 6.5v57.1h-9.3V6.5h9.3zM1103.3 63.6h-9.2V59h-.2c-3.3 3.5-8 5.5-12.8 5.4-10.7 0-19-8.4-19-21.2s8.4-21.2 19-21.2c4.8-.1 9.5 1.9 12.8 5.4h.2V6.5h9.2v57.1zm-31.7-20.4c0 7.5 4.9 12.6 11.3 12.6 6.3 0 11.3-5.1 11.3-12.6s-5-12.6-11.3-12.6c-6.3 0-11.3 5.1-11.3 12.6zM1112.9 48.9V22.7h9.2v24c0 6.2 2.5 9.3 6.9 9.3 5.5 0 9.2-4.2 9.2-10.1V22.8h9.3v40.9h-9.3V59h-.1c-3 3.6-7.6 5.6-12.3 5.4-7.4 0-12.9-5-12.9-15.5zM1216.5 21.7c-.1 5.1-2.9 9.7-7.4 12v.2c5.5 1.9 9.1 7.2 9 13 0 9.7-6.9 16.1-17.1 16.1h-21.5V7.4h21.5c9.2 0 15.5 5.7 15.5 14.3zm-27.3-5.2v12.6h10c4.6 0 7.2-2.3 7.2-6.3s-2.6-6.3-7.2-6.3h-10zm0 21.9v15.1h10.5c5.2 0 8.4-2.8 8.4-7.6s-3.1-7.6-8.4-7.6l-10.5.1zM1260.3 62.9h-9.1c-.1-1.6-.2-3.9-.2-5.3h-.1c-3.1 3.9-7.9 6.2-13 6-8.2 0-14.1-4.8-14.1-12.7 0-6.1 3.9-11.9 14.8-12.3 4.9-.2 12.1-.3 12.1-.3v-2.1c0-5-4.2-7.4-8.4-7.4-3.9-.4-7.5 2.4-8.2 6.3h-9.7c.5-8.7 7.6-13.7 17.8-13.7 10.2 0 17.7 6.3 17.7 16v12.4c-.1 4.3 0 8.7.4 13.1zm-23.1-44.6h-8.2l8.4-11h11.4l8.4 11h-8.2l-5.9-5.6-5.9 5.6zm13.5 26.6s-5.2.2-9.4.4c-5.8.3-8 2.5-8 5.5 0 3.5 2.8 5.2 6.7 5.2 5.8 0 10.6-3.5 10.6-9.6l.1-1.5zM1282.3 30.3v18.3c0 5.6 3.4 6.3 6.1 6.3 1.5 0 2.9-.3 4.2-1v8.4c-1.7.7-3.4 1-5.2 1-7.8 0-14.4-3.9-14.4-15v-18h-8.4v-8.4h8.4V11.4l9.3-2.7V22h10.3v8.4l-10.3-.1zM1299.9 11.6c0-3.4 2.7-6.2 6.2-6.2 3.4 0 6.2 2.7 6.2 6.2 0 3.4-2.7 6.2-6.2 6.2-3.4 0-6.2-2.8-6.2-6.2zm10.8 10.5V63h-9.3V22l9.3.1zM1377 36.4v26.5h-9.3V37.3c0-4.6-2.5-7.4-6.6-7.4-5.1 0-8.4 4.2-8.4 10.5v22.5h-9.3V37.3c0-4.6-2.5-7.4-6.5-7.4-5.1 0-8.4 4.2-8.4 10.5v22.5h-9.3V22h9.3v5.1h.1c2.3-3.6 6.4-5.8 10.7-5.7 4.6-.1 8.9 2.6 10.7 6.8 3.2-4.5 8.6-7.1 14.1-6.8 8 0 12.9 6 12.9 15zM1414.1 49.8l9.7 1.3c-3.9 9.3-10.5 12.6-18.9 12.6-11.8 0-20.5-8.4-20.5-21.2s8.7-21.2 19.8-21.2c10.8 0 20.5 7.7 20.5 24.2h-30.4c.2 5.6 4.9 10 10.5 10 4 .3 7.7-2 9.3-5.7zm-19.8-11.3h20.1c-.7-5.5-5.7-9.5-11.3-8.8-4.6.5-8.2 4.2-8.8 8.8zM1441.4 22v5h.1c2.6-3.8 6.9-5.9 11.5-5.8 7.4 0 14 4.9 14 16.6V63h-9.3V38.9c0-6.2-2.7-9.3-7-9.3-5.5 0-9.3 4.2-9.3 10.1v23.1h-9.4V22h9.4zM1489.5 30.3v18.3c0 5.6 3.4 6.3 6.1 6.3 1.5 0 2.9-.3 4.2-1v8.4c-1.7.7-3.5 1-5.3 1-7.8 0-14.3-3.9-14.3-15v-18h-8.4v-8.4h8.6V11.4l9.3-2.7V22h10.3v8.4l-10.5-.1zM821.4 114.7c0 16.7-11.3 27.8-26.7 27.8h-19.6V87.1h19.6c15.4-.1 26.7 10.9 26.7 27.6zm-10 0c0-11.1-6.7-18.5-16.9-18.5h-9.7v37h9.7c10.2 0 16.9-7.4 16.9-18.5zM828.9 127.7v-26.2h9.3v24c0 6.2 2.5 9.3 6.9 9.3 5.5 0 9.2-4.2 9.2-10.1v-23.1h9.3v40.9h-9.3v-4.6h-.2c-3 3.6-7.6 5.6-12.3 5.4-7.4-.1-12.9-5.1-12.9-15.6zM882.6 101.6v4.6h.1c2.5-3.3 6.4-5.1 10.5-4.9 1 0 2 .2 3 .5v9.3c-1.3-.3-2.6-.4-3.9-.5-6.9 0-9.8 3-9.8 9.7v22.3h-9.2v-40.9h9.3v-.1zM936.9 142.5h-9.1c-.1-1.5-.2-3.9-.2-5.2h-.2c-3.1 4-7.9 6.2-13 6-8.2 0-14.1-4.8-14.1-12.7 0-6.1 3.9-11.9 14.8-12.3 5-.2 12.1-.3 12.1-.3v-2.1c0-5-4.2-7.4-8.4-7.4s-7.6 2.4-8.2 6.3H901c.5-8.7 7.6-13.7 17.8-13.7s17.7 6.4 17.7 16v12.4c0 4.2.1 8.6.4 13zm-19-17.6c-5.8.3-8 2.5-8 5.5 0 3.5 2.8 5.2 6.7 5.2 5.8 0 10.7-3.5 10.7-9.6v-1.6c0 .1-5.2.2-9.4.5zM946 85.4h9.3V107h.2c3-4 7.8-6.3 12.8-6.2 10.7 0 19 8.4 19 21.2s-8.4 21.2-19 21.2c-5 .1-9.8-2.2-12.8-6.2h-.2v5.4H946v-57zm9.1 36.6c0 7.5 4.9 12.6 11.3 12.6 6.3 0 11.3-5.1 11.3-12.6s-4.9-12.6-11.3-12.6c-6.3 0-11.3 5.1-11.3 12.6zM1004.3 85.4v57.1H995V85.4h9.3zM1041.6 129.3l9.6 1.3c-3.8 9.3-10.5 12.6-18.9 12.6-11.8 0-20.5-8.4-20.5-21.2s8.7-21.2 19.8-21.2c11.1 0 20.5 7.7 20.5 24.2h-30.2c.2 5.6 4.9 10 10.5 10 4 .3 7.6-2 9.2-5.7zm-19.8-11.4h20.1c-.6-5.5-5.6-9.5-11.2-8.9-4.6.6-8.3 4.2-8.9 8.9zM1116.6 142.5h-9.3v-4.6h-.1c-3.3 3.5-8 5.4-12.8 5.4-10.7 0-18.9-8.4-18.9-21.2s8.4-21.2 18.9-21.2c4.8-.1 9.5 1.9 12.8 5.4h.1V85.5h9.3v57zm-31.7-20.5c0 7.5 5 12.6 11.3 12.6s11.3-5.1 11.3-12.6-5-12.6-11.3-12.6c-6.4 0-11.3 5.1-11.3 12.6zM1126.2 127.7v-26.2h9.3v24c0 6.2 2.5 9.3 6.9 9.3 5.5 0 9.2-4.2 9.2-10.1v-23.1h9.3v40.9h-9.3v-4.6h-.2c-3 3.6-7.6 5.6-12.3 5.4-7.4-.1-12.9-5.1-12.9-15.6zM1232.6 123.2l10 1.3c-3.5 10.9-13.7 18.2-25.2 17.9-15.2 0-26.8-11.4-26.8-28.6s11.6-28.6 26.8-28.6c11.5-.2 21.8 7.2 25.2 18.2l-10 1.3c-2.4-6.3-8.5-10.3-15.2-10.1-10 0-16.8 7.4-16.8 19.1 0 12.1 6.7 19.1 16.8 19.1 6.6.5 12.8-3.4 15.2-9.6zM1284.1 141.6h-9.1c-.1-1.5-.2-3.9-.2-5.2h-.1c-3.1 3.9-7.9 6.2-13 6-8.2 0-14.1-4.9-14.1-12.7 0-6.1 3.9-11.9 14.8-12.4 4.9-.2 12.1-.3 12.1-.3v-2.1c0-5-4.2-7.4-8.4-7.4s-7.7 2.4-8.2 6.2h-9.6c.5-8.7 7.6-13.7 17.8-13.7 10.2 0 17.7 6.3 17.7 16v12.4c-.2 4.4-.1 8.8.3 13.2zM1265 124c-5.8.3-8 2.5-8 5.5 0 3.5 2.8 5.2 6.7 5.2 5.8 0 10.6-3.5 10.6-9.6v-1.6c.1.1-5.1.3-9.3.5zM1302.4 100.7v5h.1c2.6-3.7 6.9-5.9 11.4-5.8 7.4 0 14 4.8 14 16.6v25.1h-9.3v-24c0-6.2-2.7-9.3-7-9.3-5.5 0-9.3 4.2-9.3 10.1v23.1h-9.3v-40.9l9.4.1zM1372.1 141.6h-9.1c-.2-1.5-.2-3.9-.2-5.2h-.2c-3.1 4-7.9 6.2-13 6-8.2 0-14.1-4.9-14.1-12.7 0-6.1 3.9-11.9 14.8-12.4 5-.2 12.1-.3 12.1-.3v-2.1c0-5-4.2-7.4-8.5-7.4s-7.6 2.4-8.2 6.2h-9.6c.5-8.7 7.6-13.7 17.8-13.7 10.2 0 17.7 6.3 17.7 16v12.4c-.1 4.4.1 8.8.5 13.2zM1353 124c-5.8.3-8 2.5-8 5.5 0 3.5 2.8 5.2 6.7 5.2 5.8 0 10.7-3.5 10.7-9.6v-1.6c0 .1-5.2.3-9.4.5zM1419.9 141.6h-9.3v-4.7h-.2c-3.3 3.5-8 5.4-12.8 5.4-10.7 0-18.9-8.5-18.9-21.2s8.4-21.2 18.9-21.2c4.8-.1 9.5 1.9 12.8 5.4h.2V84.5h9.3v57.1zm-31.6-20.4c0 7.5 4.9 12.6 11.3 12.6 6.3 0 11.3-5.1 11.3-12.6s-4.9-12.6-11.3-12.6-11.3 5.1-11.3 12.6zM1464.5 141.6h-9.1c-.2-1.5-.2-3.9-.2-5.2h-.2c-3.1 4-7.9 6.2-13 6-8.2 0-14.1-4.9-14.1-12.7 0-6.1 3.9-11.9 14.8-12.4 5-.2 12.1-.3 12.1-.3v-2.1c0-5-4.2-7.4-8.5-7.4s-7.6 2.4-8.2 6.2h-9.6c.5-8.7 7.6-13.7 17.8-13.7s17.7 6.3 17.7 16v12.4c0 4.4.1 8.8.5 13.2zm-19.1-17.6c-5.8.3-8 2.5-8 5.5 0 3.5 2.8 5.2 6.7 5.2 5.8 0 10.7-3.5 10.7-9.6v-1.6s-5.3.2-9.5.4h.1v.1z"/></svg>