<svg xmlns="http://www.w3.org/2000/svg" xmlns:xlink="http://www.w3.org/1999/xlink" width="1277.293" height="971.271" viewBox="0 0 1277.293 971.271">
  <defs>
    <clipPath id="clip-path">
      <rect id="Rectangle_201" data-name="Rectangle 201" width="1277.293" height="971.271" transform="translate(434.406 6635.735)" fill="none"/>
    </clipPath>
  </defs>
  <g id="Group_103" data-name="Group 103" transform="translate(-434.406 -6635.735)">
    <g id="Group_102" data-name="Group 102" clip-path="url(#clip-path)">
      <rect id="Rectangle_200" data-name="Rectangle 200" width="1277.293" height="995.037" transform="translate(434.406 6635.735)" fill="#277651"/>
      <g id="Group_101" data-name="Group 101" opacity="0.09" style="mix-blend-mode: multiply;isolation: isolate">
        <path id="Path_134" data-name="Path 134" d="M461.759,6620.625v-22.29H433.5l44.018-44.019H446l-28.257,28.257v-28.257h-22.29v66.309Z" fill="#277651"/>
        <path id="Path_135" data-name="Path 135" d="M641.626,6620.625v-22.29H613.369l44.018-44.019H625.865l-28.257,28.257v-28.257h-22.29v66.309Z" fill="#277651"/>
        <path id="Path_136" data-name="Path 136" d="M821.493,6620.625v-22.29H793.236l44.018-44.019H805.732l-28.257,28.257v-28.257h-22.29v66.309Z" fill="#277651"/>
        <path id="Path_137" data-name="Path 137" d="M999.294,6620.625v-22.29H971.036l44.018-44.019H983.532l-28.257,28.257v-28.257h-22.29v66.309Z" fill="#277651"/>
        <path id="Path_138" data-name="Path 138" d="M1177.094,6620.625v-22.29h-28.257l44.018-44.019h-31.522l-28.257,28.257v-28.257h-22.29v66.309Z" fill="#277651"/>
        <path id="Path_139" data-name="Path 139" d="M1356.961,6620.625v-22.29H1328.7l44.018-44.019H1341.2l-28.257,28.257v-28.257h-22.29v66.309Z" fill="#277651"/>
        <path id="Path_140" data-name="Path 140" d="M1534.761,6620.625v-22.29H1506.5l44.018-44.019H1519l-28.257,28.257v-28.257h-22.29v66.309Z" fill="#277651"/>
        <path id="Path_141" data-name="Path 141" d="M1716.695,6620.625v-22.29h-28.257l44.018-44.019h-31.522l-28.257,28.257v-28.257h-22.29v66.309Z" fill="#277651"/>
        <path id="Path_142" data-name="Path 142" d="M1893.462,6620.625v-22.29H1865.2l44.018-44.019H1877.7l-28.257,28.257v-28.257h-22.29v66.309Z" fill="#277651"/>
        <path id="Path_143" data-name="Path 143" d="M1744.715,6554.317v22.29h28.257l-44.018,44.019h31.522l28.257-28.257v28.257h22.29v-66.309Z" fill="#277651"/>
        <path id="Path_144" data-name="Path 144" d="M2070.229,6620.625v-22.29h-28.257l44.019-44.019h-31.523l-28.257,28.257v-28.257h-22.29v66.309Z" fill="#277651"/>
        <path id="Path_145" data-name="Path 145" d="M1921.482,6554.317v22.29h28.257l-44.018,44.019h31.523l28.257-28.257v28.257h22.29v-66.309Z" fill="#277651"/>
        <path id="Path_146" data-name="Path 146" d="M1567.948,6554.317v22.29H1596.2l-44.018,44.019h31.522l28.257-28.257v28.257h22.29v-66.309Z" fill="#277651"/>
        <path id="Path_147" data-name="Path 147" d="M1386.014,6554.317v22.29h28.257l-44.018,44.019h31.523l28.257-28.257v28.257h22.29v-66.309Z" fill="#277651"/>
        <path id="Path_148" data-name="Path 148" d="M1208.214,6554.317v22.29h28.257l-44.018,44.019h31.522l28.257-28.257v28.257h22.29v-66.309Z" fill="#277651"/>
        <path id="Path_149" data-name="Path 149" d="M1028.347,6554.317v22.29H1056.6l-44.018,44.019h31.523l28.257-28.257v28.257h22.29v-66.309Z" fill="#277651"/>
        <path id="Path_150" data-name="Path 150" d="M850.546,6554.317v22.29H878.8l-44.018,44.019h31.523l28.257-28.257v28.257h22.29v-66.309Z" fill="#277651"/>
        <path id="Path_151" data-name="Path 151" d="M670.68,6554.317v22.29h28.257l-44.018,44.019h31.523l28.257-28.257v28.257h22.29v-66.309Z" fill="#277651"/>
        <path id="Path_152" data-name="Path 152" d="M492.879,6554.317v22.29h28.257l-44.018,44.019H508.64l28.257-28.257v28.257h22.29v-66.309Z" fill="#277651"/>
        <path id="Path_153" data-name="Path 153" d="M211.792,6802.224v-22.29H183.535l44.018-44.019H196.031l-28.257,28.257v-28.257h-22.29v66.309Z" fill="#277651"/>
        <path id="Path_154" data-name="Path 154" d="M391.659,6802.224v-22.29H363.4l44.018-44.019H375.9l-28.257,28.257v-28.257H325.35v66.309Z" fill="#277651"/>
        <path id="Path_155" data-name="Path 155" d="M571.526,6802.224v-22.29H543.269l44.018-44.019H555.765l-28.257,28.257v-28.257h-22.29v66.309Z" fill="#277651"/>
        <path id="Path_156" data-name="Path 156" d="M749.326,6802.224v-22.29H721.069l44.018-44.019H733.565l-28.257,28.257v-28.257h-22.29v66.309Z" fill="#277651"/>
        <path id="Path_157" data-name="Path 157" d="M927.127,6802.224v-22.29H898.869l44.018-44.019H911.365l-28.257,28.257v-28.257h-22.29v66.309Z" fill="#277651"/>
        <path id="Path_158" data-name="Path 158" d="M1106.993,6802.224v-22.29h-28.257l44.018-44.019h-31.523l-28.257,28.257v-28.257h-22.29v66.309Z" fill="#277651"/>
        <path id="Path_159" data-name="Path 159" d="M1284.794,6802.224v-22.29h-28.257l44.018-44.019h-31.522l-28.257,28.257v-28.257h-22.29v66.309Z" fill="#277651"/>
        <path id="Path_160" data-name="Path 160" d="M1466.727,6802.224v-22.29H1438.47l44.018-44.019h-31.523l-28.257,28.257v-28.257h-22.29v66.309Z" fill="#277651"/>
        <path id="Path_161" data-name="Path 161" d="M1643.494,6802.224v-22.29h-28.257l44.018-44.019h-31.523l-28.257,28.257v-28.257h-22.29v66.309Z" fill="#277651"/>
        <path id="Path_162" data-name="Path 162" d="M1494.747,6735.916v22.291H1523l-44.018,44.018h31.523l28.257-28.257v28.257h22.29v-66.309Z" fill="#277651"/>
        <path id="Path_163" data-name="Path 163" d="M1820.261,6802.224v-22.29H1792l44.018-44.019H1804.5l-28.257,28.257v-28.257h-22.29v66.309Z" fill="#277651"/>
        <path id="Path_164" data-name="Path 164" d="M1671.514,6735.916v22.291h28.257l-44.018,44.018h31.522l28.257-28.257v28.257h22.29v-66.309Z" fill="#277651"/>
        <path id="Path_165" data-name="Path 165" d="M1997.029,6802.224v-22.29h-28.257l44.018-44.019h-31.522l-28.257,28.257v-28.257h-22.29v66.309Z" fill="#277651"/>
        <path id="Path_166" data-name="Path 166" d="M1848.281,6735.916v22.291h28.257l-44.018,44.018h31.522l28.257-28.257v28.257h22.29v-66.309Z" fill="#277651"/>
        <path id="Path_167" data-name="Path 167" d="M2173.8,6802.224v-22.29h-28.257l44.018-44.019h-31.522l-28.257,28.257v-28.257h-22.29v66.309Z" fill="#277651"/>
        <path id="Path_168" data-name="Path 168" d="M2025.049,6735.916v22.291h28.257l-44.018,44.018h31.523l28.257-28.257v28.257h22.29v-66.309Z" fill="#277651"/>
        <path id="Path_169" data-name="Path 169" d="M2034.246,7074.623v-22.291h-28.257l44.018-44.018h-31.522l-28.257,28.257v-28.257h-22.29v66.309Z" fill="#277651"/>
        <path id="Path_170" data-name="Path 170" d="M1885.5,7008.314v22.29h28.257l-44.018,44.019h31.522l28.257-28.257v28.257h22.29v-66.309Z" fill="#277651"/>
        <path id="Path_171" data-name="Path 171" d="M2211.013,7074.623v-22.291h-28.257l44.018-44.018h-31.522l-28.257,28.257v-28.257H2144.7v66.309Z" fill="#277651"/>
        <path id="Path_172" data-name="Path 172" d="M2062.266,7008.314v22.29h28.257l-44.018,44.019h31.523l28.257-28.257v28.257h22.29v-66.309Z" fill="#277651"/>
        <path id="Path_173" data-name="Path 173" d="M1964.777,7347.885v-22.29H1936.52l44.018-44.019h-31.522l-28.257,28.257v-28.257h-22.29v66.309Z" fill="#277651"/>
        <path id="Path_174" data-name="Path 174" d="M1816.03,7281.576v22.29h28.257l-44.018,44.019h31.522l28.257-28.257v28.257h22.29v-66.309Z" fill="#277651"/>
        <path id="Path_175" data-name="Path 175" d="M2141.544,7347.885v-22.29h-28.257l44.019-44.019h-31.523l-28.257,28.257v-28.257h-22.29v66.309Z" fill="#277651"/>
        <path id="Path_176" data-name="Path 176" d="M1992.8,7281.576v22.29h28.257l-44.018,44.019h31.523l28.257-28.257v28.257h22.29v-66.309Z" fill="#277651"/>
        <path id="Path_177" data-name="Path 177" d="M1317.98,6735.916v22.291h28.257l-44.018,44.018h31.523L1362,6773.967v28.257h22.29v-66.309Z" fill="#277651"/>
        <path id="Path_178" data-name="Path 178" d="M1136.047,6735.916v22.291H1164.3l-44.018,44.018h31.522l28.257-28.257v28.257h22.29v-66.309Z" fill="#277651"/>
        <path id="Path_179" data-name="Path 179" d="M958.246,6735.916v22.291H986.5l-44.018,44.018h31.523l28.257-28.257v28.257h22.29v-66.309Z" fill="#277651"/>
        <path id="Path_180" data-name="Path 180" d="M778.379,6735.916v22.291h28.257l-44.018,44.018h31.523l28.257-28.257v28.257h22.29v-66.309Z" fill="#277651"/>
        <path id="Path_181" data-name="Path 181" d="M600.579,6735.916v22.291h28.257l-44.018,44.018H616.34l28.257-28.257v28.257h22.29v-66.309Z" fill="#277651"/>
        <path id="Path_182" data-name="Path 182" d="M420.712,6735.916v22.291h28.257l-44.018,44.018h31.523l28.257-28.257v28.257h22.29v-66.309Z" fill="#277651"/>
        <path id="Path_183" data-name="Path 183" d="M343.312,6826.715v22.291h28.257l-44.018,44.018h31.523l28.257-28.257v28.257h22.29v-66.309Z" fill="#277651"/>
        <path id="Path_184" data-name="Path 184" d="M242.912,6735.916v22.291h28.257l-44.018,44.018h31.523l28.257-28.257v28.257h22.29v-66.309Z" fill="#277651"/>
        <path id="Path_185" data-name="Path 185" d="M557.357,6711.425v-22.29H529.1l44.018-44.019H541.6l-28.257,28.257v-28.257h-22.29v66.309Z" fill="#277651"/>
        <path id="Path_186" data-name="Path 186" d="M737.223,6711.425v-22.29H708.966l44.018-44.019H721.462L693.2,6673.373v-28.257h-22.29v66.309Z" fill="#277651"/>
        <path id="Path_187" data-name="Path 187" d="M917.09,6711.425v-22.29H888.833l44.018-44.019H901.329l-28.257,28.257v-28.257h-22.29v66.309Z" fill="#277651"/>
        <path id="Path_188" data-name="Path 188" d="M1094.891,6711.425v-22.29h-28.257l44.018-44.019h-31.523l-28.257,28.257v-28.257h-22.29v66.309Z" fill="#277651"/>
        <path id="Path_189" data-name="Path 189" d="M1272.691,6711.425v-22.29h-28.257l44.018-44.019H1256.93l-28.257,28.257v-28.257h-22.29v66.309Z" fill="#277651"/>
        <path id="Path_190" data-name="Path 190" d="M1452.558,6711.425v-22.29H1424.3l44.018-44.019H1436.8l-28.257,28.257v-28.257h-22.29v66.309Z" fill="#277651"/>
        <path id="Path_191" data-name="Path 191" d="M1630.358,6711.425v-22.29H1602.1l44.018-44.019H1614.6l-28.257,28.257v-28.257h-22.29v66.309Z" fill="#277651"/>
        <path id="Path_192" data-name="Path 192" d="M1812.292,6711.425v-22.29h-28.257l44.018-44.019h-31.523l-28.257,28.257v-28.257h-22.29v66.309Z" fill="#277651"/>
        <path id="Path_193" data-name="Path 193" d="M1989.059,6711.425v-22.29H1960.8l44.018-44.019H1973.3l-28.257,28.257v-28.257h-22.29v66.309Z" fill="#277651"/>
        <path id="Path_194" data-name="Path 194" d="M1840.312,6645.116v22.29h28.257l-44.018,44.019h31.523l28.257-28.257v28.257h22.29v-66.309Z" fill="#277651"/>
        <path id="Path_195" data-name="Path 195" d="M2165.826,6711.425v-22.29h-28.257l44.019-44.019h-31.523l-28.257,28.257v-28.257h-22.29v66.309Z" fill="#277651"/>
        <path id="Path_196" data-name="Path 196" d="M2017.079,6645.116v22.29h28.257l-44.018,44.019h31.522l28.257-28.257v28.257h22.29v-66.309Z" fill="#277651"/>
        <path id="Path_197" data-name="Path 197" d="M1663.545,6645.116v22.29H1691.8l-44.018,44.019h31.523l28.257-28.257v28.257h22.29v-66.309Z" fill="#277651"/>
        <path id="Path_198" data-name="Path 198" d="M1481.611,6645.116v22.29h28.257l-44.018,44.019h31.522l28.257-28.257v28.257h22.29v-66.309Z" fill="#277651"/>
        <path id="Path_199" data-name="Path 199" d="M1303.811,6645.116v22.29h28.257l-44.018,44.019h31.523l28.257-28.257v28.257h22.29v-66.309Z" fill="#277651"/>
        <path id="Path_200" data-name="Path 200" d="M1123.944,6645.116v22.29H1152.2l-44.018,44.019h31.523l28.257-28.257v28.257h22.29v-66.309Z" fill="#277651"/>
        <path id="Path_201" data-name="Path 201" d="M946.144,6645.116v22.29H974.4l-44.018,44.019H961.9l28.257-28.257v28.257h22.29v-66.309Z" fill="#277651"/>
        <path id="Path_202" data-name="Path 202" d="M766.277,6645.116v22.29h28.257l-44.018,44.019h31.523l28.257-28.257v28.257h22.29v-66.309Z" fill="#277651"/>
        <path id="Path_203" data-name="Path 203" d="M588.476,6645.116v22.29h28.257l-44.018,44.019h31.523l28.257-28.257v28.257h22.29v-66.309Z" fill="#277651"/>
        <path id="Path_204" data-name="Path 204" d="M195.757,6711.425v-22.29H167.5l44.018-44.019H180l-28.257,28.257v-28.257h-22.29v66.309Z" fill="#277651"/>
        <path id="Path_205" data-name="Path 205" d="M375.624,6711.425v-22.29H347.367l44.018-44.019H359.863l-28.257,28.257v-28.257h-22.29v66.309Z" fill="#277651"/>
        <path id="Path_206" data-name="Path 206" d="M404.678,6645.116v22.29h28.257l-44.018,44.019h31.523l28.257-28.257v28.257h22.29v-66.309Z" fill="#277651"/>
        <path id="Path_207" data-name="Path 207" d="M226.877,6645.116v22.29h28.257l-44.018,44.019h31.523l28.257-28.257v28.257h22.29v-66.309Z" fill="#277651"/>
        <path id="Path_208" data-name="Path 208" d="M225.76,6983.823v-22.29H197.5l44.018-44.018H210l-28.257,28.257v-28.257h-22.29v66.308Z" fill="#277651"/>
        <path id="Path_209" data-name="Path 209" d="M405.627,6983.823v-22.29H377.37l44.018-44.018H389.866l-28.257,28.257v-28.257h-22.29v66.308Z" fill="#277651"/>
        <path id="Path_210" data-name="Path 210" d="M434.68,6917.515v22.29h28.257l-44.018,44.018h31.523l28.257-28.257v28.257h22.29v-66.308Z" fill="#277651"/>
        <path id="Path_211" data-name="Path 211" d="M256.88,6917.515v22.29h28.257l-44.018,44.018h31.523l28.257-28.257v28.257h22.29v-66.308Z" fill="#277651"/>
        <path id="Path_212" data-name="Path 212" d="M163.762,7257.085V7234.8H135.505l44.018-44.019H148l-28.257,28.257v-28.257H97.454v66.309Z" fill="#277651"/>
        <path id="Path_213" data-name="Path 213" d="M343.629,7257.085V7234.8H315.372l44.018-44.019H327.868l-28.257,28.257v-28.257h-22.29v66.309Z" fill="#277651"/>
        <path id="Path_214" data-name="Path 214" d="M372.683,7190.777v22.29H400.94l-44.018,44.019h31.523l28.257-28.257v28.257h22.29v-66.309Z" fill="#277651"/>
        <path id="Path_215" data-name="Path 215" d="M194.882,7190.777v22.29h28.257l-44.018,44.019h31.523l28.257-28.257v28.257h22.29v-66.309Z" fill="#277651"/>
        <path id="Path_216" data-name="Path 216" d="M195.794,7529.483v-22.29H167.537l44.018-44.019H180.033l-28.257,28.257v-28.257h-22.29v66.309Z" fill="#277651"/>
        <path id="Path_217" data-name="Path 217" d="M375.661,7529.483v-22.29H347.4l44.018-44.019H359.9l-28.257,28.257v-28.257h-22.29v66.309Z" fill="#277651"/>
        <path id="Path_218" data-name="Path 218" d="M404.715,7463.175v22.291h28.257l-44.018,44.018h31.523l28.257-28.257v28.257h22.29v-66.309Z" fill="#277651"/>
        <path id="Path_219" data-name="Path 219" d="M226.914,7463.175v22.291h28.257l-44.018,44.018h31.523l28.257-28.257v28.257h22.29v-66.309Z" fill="#277651"/>
        <path id="Path_220" data-name="Path 220" d="M493.791,6893.023v-22.29H465.534l44.018-44.019H478.03l-28.257,28.257v-28.257h-22.29v66.309Z" fill="#277651"/>
        <path id="Path_221" data-name="Path 221" d="M673.658,6893.023v-22.29H645.4l44.018-44.019H657.9l-28.257,28.257v-28.257H607.35v66.309Z" fill="#277651"/>
        <path id="Path_222" data-name="Path 222" d="M853.525,6893.023v-22.29H825.268l44.018-44.019H837.764l-28.257,28.257v-28.257h-22.29v66.309Z" fill="#277651"/>
        <path id="Path_223" data-name="Path 223" d="M1031.326,6893.023v-22.29h-28.257l44.018-44.019h-31.523l-28.257,28.257v-28.257h-22.29v66.309Z" fill="#277651"/>
        <path id="Path_224" data-name="Path 224" d="M1209.126,6893.023v-22.29h-28.257l44.018-44.019h-31.523l-28.257,28.257v-28.257h-22.29v66.309Z" fill="#277651"/>
        <path id="Path_225" data-name="Path 225" d="M1388.993,6893.023v-22.29h-28.257l44.018-44.019h-31.523l-28.257,28.257v-28.257h-22.29v66.309Z" fill="#277651"/>
        <path id="Path_226" data-name="Path 226" d="M1566.793,6893.023v-22.29h-28.257l44.018-44.019h-31.522l-28.257,28.257v-28.257h-22.29v66.309Z" fill="#277651"/>
        <path id="Path_227" data-name="Path 227" d="M1748.727,6893.023v-22.29H1720.47l44.018-44.019h-31.523l-28.257,28.257v-28.257h-22.29v66.309Z" fill="#277651"/>
        <path id="Path_228" data-name="Path 228" d="M1925.494,6893.023v-22.29h-28.257l44.018-44.019h-31.523l-28.257,28.257v-28.257h-22.29v66.309Z" fill="#277651"/>
        <path id="Path_229" data-name="Path 229" d="M1776.747,6826.715v22.291H1805l-44.018,44.018h31.523l28.257-28.257v28.257h22.29v-66.309Z" fill="#277651"/>
        <path id="Path_230" data-name="Path 230" d="M2102.261,6893.023v-22.29H2074l44.019-44.019H2086.5l-28.257,28.257v-28.257h-22.29v66.309Z" fill="#277651"/>
        <path id="Path_231" data-name="Path 231" d="M1953.514,6826.715v22.291h28.257l-44.018,44.018h31.523l28.257-28.257v28.257h22.29v-66.309Z" fill="#277651"/>
        <path id="Path_232" data-name="Path 232" d="M1599.98,6826.715v22.291h28.257l-44.018,44.018h31.523L1644,6864.767v28.257h22.29v-66.309Z" fill="#277651"/>
        <path id="Path_233" data-name="Path 233" d="M1418.046,6826.715v22.291H1446.3l-44.018,44.018h31.522l28.257-28.257v28.257h22.29v-66.309Z" fill="#277651"/>
        <path id="Path_234" data-name="Path 234" d="M1240.246,6826.715v22.291H1268.5l-44.018,44.018h31.523l28.257-28.257v28.257h22.29v-66.309Z" fill="#277651"/>
        <path id="Path_235" data-name="Path 235" d="M1060.379,6826.715v22.291h28.257l-44.018,44.018h31.523l28.257-28.257v28.257h22.29v-66.309Z" fill="#277651"/>
        <path id="Path_236" data-name="Path 236" d="M882.578,6826.715v22.291h28.257l-44.018,44.018H898.34l28.257-28.257v28.257h22.29v-66.309Z" fill="#277651"/>
        <path id="Path_237" data-name="Path 237" d="M702.712,6826.715v22.291h28.257l-44.018,44.018h31.523l28.257-28.257v28.257h22.29v-66.309Z" fill="#277651"/>
        <path id="Path_238" data-name="Path 238" d="M524.911,6826.715v22.291h28.257l-44.018,44.018h31.523l28.257-28.257v28.257h22.29v-66.309Z" fill="#277651"/>
        <path id="Path_239" data-name="Path 239" d="M243.824,7074.623v-22.291H215.567l44.018-44.018H228.063l-28.257,28.257v-28.257h-22.29v66.309Z" fill="#277651"/>
        <path id="Path_240" data-name="Path 240" d="M423.691,7074.623v-22.291H395.434l44.018-44.018H407.93l-28.257,28.257v-28.257h-22.29v66.309Z" fill="#277651"/>
        <path id="Path_241" data-name="Path 241" d="M603.558,7074.623v-22.291H575.3l44.018-44.018H587.8l-28.257,28.257v-28.257h-22.29v66.309Z" fill="#277651"/>
        <path id="Path_242" data-name="Path 242" d="M781.358,7074.623v-22.291H753.1l44.018-44.018H765.6l-28.257,28.257v-28.257H715.05v66.309Z" fill="#277651"/>
        <path id="Path_243" data-name="Path 243" d="M959.159,7074.623v-22.291H930.9l44.018-44.018H943.4l-28.257,28.257v-28.257H892.85v66.309Z" fill="#277651"/>
        <path id="Path_244" data-name="Path 244" d="M1139.026,7074.623v-22.291h-28.257l44.018-44.018h-31.522l-28.257,28.257v-28.257h-22.29v66.309Z" fill="#277651"/>
        <path id="Path_245" data-name="Path 245" d="M1316.826,7074.623v-22.291h-28.257l44.018-44.018h-31.523l-28.257,28.257v-28.257h-22.29v66.309Z" fill="#277651"/>
        <path id="Path_246" data-name="Path 246" d="M1498.759,7074.623v-22.291H1470.5l44.018-44.018H1483l-28.257,28.257v-28.257h-22.29v66.309Z" fill="#277651"/>
        <path id="Path_247" data-name="Path 247" d="M1675.526,7074.623v-22.291h-28.257l44.018-44.018h-31.523l-28.257,28.257v-28.257h-22.29v66.309Z" fill="#277651"/>
        <path id="Path_248" data-name="Path 248" d="M1526.779,7008.314v22.29h28.257l-44.018,44.019h31.523l28.257-28.257v28.257h22.29v-66.309Z" fill="#277651"/>
        <path id="Path_249" data-name="Path 249" d="M1852.294,7074.623v-22.291h-28.257l44.018-44.018h-31.523l-28.257,28.257v-28.257h-22.29v66.309Z" fill="#277651"/>
        <path id="Path_250" data-name="Path 250" d="M1703.547,7008.314v22.29H1731.8l-44.018,44.019h31.523l28.257-28.257v28.257h22.29v-66.309Z" fill="#277651"/>
        <path id="Path_251" data-name="Path 251" d="M1350.012,7008.314v22.29h28.257l-44.018,44.019h31.522l28.257-28.257v28.257h22.29v-66.309Z" fill="#277651"/>
        <path id="Path_252" data-name="Path 252" d="M1168.079,7008.314v22.29h28.257l-44.018,44.019h31.523l28.257-28.257v28.257h22.29v-66.309Z" fill="#277651"/>
        <path id="Path_253" data-name="Path 253" d="M990.278,7008.314v22.29h28.257l-44.018,44.019h31.523l28.257-28.257v28.257h22.29v-66.309Z" fill="#277651"/>
        <path id="Path_254" data-name="Path 254" d="M810.411,7008.314v22.29h28.257l-44.018,44.019h31.523l28.257-28.257v28.257h22.29v-66.309Z" fill="#277651"/>
        <path id="Path_255" data-name="Path 255" d="M632.611,7008.314v22.29h28.257l-44.018,44.019h31.523l28.257-28.257v28.257h22.29v-66.309Z" fill="#277651"/>
        <path id="Path_256" data-name="Path 256" d="M452.744,7008.314v22.29H481l-44.018,44.019h31.523l28.257-28.257v28.257h22.29v-66.309Z" fill="#277651"/>
        <path id="Path_257" data-name="Path 257" d="M274.944,7008.314v22.29H303.2l-44.018,44.019h31.523l28.257-28.257v28.257h22.29v-66.309Z" fill="#277651"/>
        <path id="Path_258" data-name="Path 258" d="M589.389,6983.823v-22.29H561.131l44.018-44.018H573.627l-28.257,28.257v-28.257H523.08v66.308Z" fill="#277651"/>
        <path id="Path_259" data-name="Path 259" d="M769.255,6983.823v-22.29H741l44.018-44.018H753.494l-28.257,28.257v-28.257h-22.29v66.308Z" fill="#277651"/>
        <path id="Path_260" data-name="Path 260" d="M949.122,6983.823v-22.29H920.865l44.018-44.018H933.361L905.1,6945.771v-28.257h-22.29v66.308Z" fill="#277651"/>
        <path id="Path_261" data-name="Path 261" d="M1126.923,6983.823v-22.29h-28.257l44.018-44.018h-31.523l-28.257,28.257v-28.257h-22.29v66.308Z" fill="#277651"/>
        <path id="Path_262" data-name="Path 262" d="M1304.723,6983.823v-22.29h-28.257l44.018-44.018h-31.522l-28.257,28.257v-28.257h-22.29v66.308Z" fill="#277651"/>
        <path id="Path_263" data-name="Path 263" d="M1484.59,6983.823v-22.29h-28.257l44.018-44.018h-31.522l-28.257,28.257v-28.257h-22.29v66.308Z" fill="#277651"/>
        <path id="Path_264" data-name="Path 264" d="M1662.39,6983.823v-22.29h-28.257l44.018-44.018h-31.523l-28.257,28.257v-28.257h-22.29v66.308Z" fill="#277651"/>
        <path id="Path_265" data-name="Path 265" d="M1844.324,6983.823v-22.29h-28.257l44.018-44.018h-31.522l-28.257,28.257v-28.257h-22.29v66.308Z" fill="#277651"/>
        <path id="Path_266" data-name="Path 266" d="M2021.091,6983.823v-22.29h-28.257l44.018-44.018H2005.33l-28.257,28.257v-28.257h-22.29v66.308Z" fill="#277651"/>
        <path id="Path_267" data-name="Path 267" d="M1872.344,6917.515v22.29H1900.6l-44.018,44.018h31.523l28.257-28.257v28.257h22.29v-66.308Z" fill="#277651"/>
        <path id="Path_268" data-name="Path 268" d="M2197.858,6983.823v-22.29H2169.6l44.018-44.018H2182.1l-28.257,28.257v-28.257h-22.29v66.308Z" fill="#277651"/>
        <path id="Path_269" data-name="Path 269" d="M2049.111,6917.515v22.29h28.257l-44.018,44.018h31.523l28.257-28.257v28.257h22.29v-66.308Z" fill="#277651"/>
        <path id="Path_270" data-name="Path 270" d="M1695.577,6917.515v22.29h28.257l-44.018,44.018h31.522l28.257-28.257v28.257h22.29v-66.308Z" fill="#277651"/>
        <path id="Path_271" data-name="Path 271" d="M1513.643,6917.515v22.29H1541.9l-44.018,44.018H1529.4l28.257-28.257v28.257h22.29v-66.308Z" fill="#277651"/>
        <path id="Path_272" data-name="Path 272" d="M1335.843,6917.515v22.29H1364.1l-44.018,44.018H1351.6l28.257-28.257v28.257h22.29v-66.308Z" fill="#277651"/>
        <path id="Path_273" data-name="Path 273" d="M1155.976,6917.515v22.29h28.257l-44.018,44.018h31.522l28.257-28.257v28.257h22.29v-66.308Z" fill="#277651"/>
        <path id="Path_274" data-name="Path 274" d="M978.176,6917.515v22.29h28.257l-44.018,44.018h31.523l28.257-28.257v28.257h22.29v-66.308Z" fill="#277651"/>
        <path id="Path_275" data-name="Path 275" d="M798.309,6917.515v22.29h28.257l-44.018,44.018H814.07l28.257-28.257v28.257h22.29v-66.308Z" fill="#277651"/>
        <path id="Path_276" data-name="Path 276" d="M620.508,6917.515v22.29h28.257l-44.018,44.018H636.27l28.257-28.257v28.257h22.29v-66.308Z" fill="#277651"/>
        <path id="Path_277" data-name="Path 277" d="M425.594,7166.286V7144H397.337l44.018-44.019H409.833l-28.257,28.257v-28.257h-22.29v66.309Z" fill="#277651"/>
        <path id="Path_278" data-name="Path 278" d="M605.461,7166.286V7144H577.2l44.018-44.019H589.7l-28.257,28.257v-28.257h-22.29v66.309Z" fill="#277651"/>
        <path id="Path_279" data-name="Path 279" d="M785.328,7166.286V7144H757.071l44.018-44.019H769.567l-28.257,28.257v-28.257h-22.29v66.309Z" fill="#277651"/>
        <path id="Path_280" data-name="Path 280" d="M963.128,7166.286V7144H934.871l44.018-44.019H947.367l-28.257,28.257v-28.257H896.82v66.309Z" fill="#277651"/>
        <path id="Path_281" data-name="Path 281" d="M1140.929,7166.286V7144h-28.257l44.018-44.019h-31.523l-28.257,28.257v-28.257h-22.29v66.309Z" fill="#277651"/>
        <path id="Path_282" data-name="Path 282" d="M1320.8,7166.286V7144h-28.257l44.018-44.019h-31.523l-28.257,28.257v-28.257h-22.29v66.309Z" fill="#277651"/>
        <path id="Path_283" data-name="Path 283" d="M1498.6,7166.286V7144h-28.257l44.018-44.019h-31.523l-28.257,28.257v-28.257h-22.29v66.309Z" fill="#277651"/>
        <path id="Path_284" data-name="Path 284" d="M1680.53,7166.286V7144h-28.257l44.018-44.019h-31.523l-28.257,28.257v-28.257h-22.29v66.309Z" fill="#277651"/>
        <path id="Path_285" data-name="Path 285" d="M1857.3,7166.286V7144h-28.257l44.018-44.019h-31.523l-28.257,28.257v-28.257h-22.29v66.309Z" fill="#277651"/>
        <path id="Path_286" data-name="Path 286" d="M1708.549,7099.978v22.29h28.257l-44.018,44.019h31.523l28.257-28.257v28.257h22.29v-66.309Z" fill="#277651"/>
        <path id="Path_287" data-name="Path 287" d="M2034.064,7166.286V7144h-28.257l44.018-44.019H2018.3l-28.257,28.257v-28.257h-22.29v66.309Z" fill="#277651"/>
        <path id="Path_288" data-name="Path 288" d="M1885.317,7099.978v22.29h28.257l-44.018,44.019h31.523l28.257-28.257v28.257h22.29v-66.309Z" fill="#277651"/>
        <path id="Path_289" data-name="Path 289" d="M1531.782,7099.978v22.29h28.257l-44.018,44.019h31.523l28.257-28.257v28.257h22.29v-66.309Z" fill="#277651"/>
        <path id="Path_290" data-name="Path 290" d="M1349.849,7099.978v22.29h28.257l-44.018,44.019h31.523l28.257-28.257v28.257h22.29v-66.309Z" fill="#277651"/>
        <path id="Path_291" data-name="Path 291" d="M1172.049,7099.978v22.29h28.257l-44.018,44.019h31.523l28.257-28.257v28.257h22.29v-66.309Z" fill="#277651"/>
        <path id="Path_292" data-name="Path 292" d="M992.182,7099.978v22.29h28.257l-44.018,44.019h31.523l28.257-28.257v28.257h22.29v-66.309Z" fill="#277651"/>
        <path id="Path_293" data-name="Path 293" d="M814.381,7099.978v22.29h28.257l-44.018,44.019h31.523l28.257-28.257v28.257h22.29v-66.309Z" fill="#277651"/>
        <path id="Path_294" data-name="Path 294" d="M634.514,7099.978v22.29h28.257l-44.018,44.019h31.523l28.257-28.257v28.257h22.29v-66.309Z" fill="#277651"/>
        <path id="Path_295" data-name="Path 295" d="M456.714,7099.978v22.29h28.257l-44.018,44.019h31.523l28.257-28.257v28.257h22.29v-66.309Z" fill="#277651"/>
        <path id="Path_296" data-name="Path 296" d="M175.627,7347.885v-22.29H147.37l44.018-44.019H159.865l-28.257,28.257v-28.257h-22.29v66.309Z" fill="#277651"/>
        <path id="Path_297" data-name="Path 297" d="M355.494,7347.885v-22.29H327.237l44.018-44.019H339.732l-28.257,28.257v-28.257h-22.29v66.309Z" fill="#277651"/>
        <path id="Path_298" data-name="Path 298" d="M535.361,7347.885v-22.29H507.1l44.018-44.019H519.6l-28.257,28.257v-28.257h-22.29v66.309Z" fill="#277651"/>
        <path id="Path_299" data-name="Path 299" d="M713.161,7347.885v-22.29H684.9l44.018-44.019H697.4l-28.257,28.257v-28.257h-22.29v66.309Z" fill="#277651"/>
        <path id="Path_300" data-name="Path 300" d="M890.961,7347.885v-22.29H862.7l44.018-44.019H875.2l-28.257,28.257v-28.257h-22.29v66.309Z" fill="#277651"/>
        <path id="Path_301" data-name="Path 301" d="M1070.828,7347.885v-22.29h-28.257l44.018-44.019h-31.522l-28.257,28.257v-28.257h-22.29v66.309Z" fill="#277651"/>
        <path id="Path_302" data-name="Path 302" d="M1248.629,7347.885v-22.29h-28.257l44.018-44.019h-31.523l-28.257,28.257v-28.257h-22.29v66.309Z" fill="#277651"/>
        <path id="Path_303" data-name="Path 303" d="M1430.562,7347.885v-22.29h-28.257l44.018-44.019H1414.8l-28.257,28.257v-28.257h-22.29v66.309Z" fill="#277651"/>
        <path id="Path_304" data-name="Path 304" d="M1607.329,7347.885v-22.29h-28.257l44.018-44.019h-31.522l-28.257,28.257v-28.257h-22.29v66.309Z" fill="#277651"/>
        <path id="Path_305" data-name="Path 305" d="M1458.582,7281.576v22.29h28.257l-44.018,44.019h31.522l28.257-28.257v28.257h22.29v-66.309Z" fill="#277651"/>
        <path id="Path_306" data-name="Path 306" d="M1784.1,7347.885v-22.29h-28.257l44.018-44.019h-31.523l-28.257,28.257v-28.257h-22.29v66.309Z" fill="#277651"/>
        <path id="Path_307" data-name="Path 307" d="M1635.349,7281.576v22.29h28.257l-44.018,44.019h31.523l28.257-28.257v28.257h22.29v-66.309Z" fill="#277651"/>
        <path id="Path_308" data-name="Path 308" d="M1281.815,7281.576v22.29h28.257l-44.018,44.019h31.522l28.257-28.257v28.257h22.29v-66.309Z" fill="#277651"/>
        <path id="Path_309" data-name="Path 309" d="M1099.882,7281.576v22.29h28.257l-44.018,44.019h31.523l28.257-28.257v28.257h22.29v-66.309Z" fill="#277651"/>
        <path id="Path_310" data-name="Path 310" d="M922.081,7281.576v22.29h28.257l-44.018,44.019h31.523l28.257-28.257v28.257h22.29v-66.309Z" fill="#277651"/>
        <path id="Path_311" data-name="Path 311" d="M742.214,7281.576v22.29h28.257l-44.018,44.019h31.523l28.257-28.257v28.257h22.29v-66.309Z" fill="#277651"/>
        <path id="Path_312" data-name="Path 312" d="M564.414,7281.576v22.29h28.257l-44.018,44.019h31.523l28.257-28.257v28.257h22.29v-66.309Z" fill="#277651"/>
        <path id="Path_313" data-name="Path 313" d="M384.547,7281.576v22.29H412.8l-44.018,44.019h31.523l28.257-28.257v28.257h22.29v-66.309Z" fill="#277651"/>
        <path id="Path_314" data-name="Path 314" d="M206.747,7281.576v22.29H235l-44.018,44.019h31.523l28.257-28.257v28.257h22.29v-66.309Z" fill="#277651"/>
        <path id="Path_315" data-name="Path 315" d="M521.191,7257.085V7234.8H492.934l44.018-44.019H505.43l-28.257,28.257v-28.257h-22.29v66.309Z" fill="#277651"/>
        <path id="Path_316" data-name="Path 316" d="M701.058,7257.085V7234.8H672.8l44.018-44.019H685.3l-28.257,28.257v-28.257H634.75v66.309Z" fill="#277651"/>
        <path id="Path_317" data-name="Path 317" d="M880.925,7257.085V7234.8H852.668l44.018-44.019H865.164l-28.257,28.257v-28.257h-22.29v66.309Z" fill="#277651"/>
        <path id="Path_318" data-name="Path 318" d="M1058.725,7257.085V7234.8h-28.257l44.018-44.019h-31.523l-28.257,28.257v-28.257h-22.29v66.309Z" fill="#277651"/>
        <path id="Path_319" data-name="Path 319" d="M1236.526,7257.085V7234.8h-28.257l44.018-44.019h-31.522l-28.257,28.257v-28.257h-22.29v66.309Z" fill="#277651"/>
        <path id="Path_320" data-name="Path 320" d="M1416.393,7257.085V7234.8h-28.257l44.018-44.019h-31.522l-28.257,28.257v-28.257h-22.29v66.309Z" fill="#277651"/>
        <path id="Path_321" data-name="Path 321" d="M1594.193,7257.085V7234.8h-28.257l44.018-44.019h-31.523l-28.257,28.257v-28.257h-22.29v66.309Z" fill="#277651"/>
        <path id="Path_322" data-name="Path 322" d="M1776.127,7257.085V7234.8H1747.87l44.018-44.019h-31.522l-28.257,28.257v-28.257h-22.29v66.309Z" fill="#277651"/>
        <path id="Path_323" data-name="Path 323" d="M1952.894,7257.085V7234.8h-28.257l44.018-44.019h-31.523l-28.257,28.257v-28.257h-22.29v66.309Z" fill="#277651"/>
        <path id="Path_324" data-name="Path 324" d="M1804.147,7190.777v22.29H1832.4l-44.018,44.019h31.523l28.257-28.257v28.257h22.29v-66.309Z" fill="#277651"/>
        <path id="Path_325" data-name="Path 325" d="M2129.661,7257.085V7234.8H2101.4l44.018-44.019H2113.9l-28.257,28.257v-28.257h-22.29v66.309Z" fill="#277651"/>
        <path id="Path_326" data-name="Path 326" d="M1980.914,7190.777v22.29h28.257l-44.018,44.019h31.523l28.257-28.257v28.257h22.29v-66.309Z" fill="#277651"/>
        <path id="Path_327" data-name="Path 327" d="M1627.38,7190.777v22.29h28.257l-44.018,44.019h31.522l28.257-28.257v28.257h22.29v-66.309Z" fill="#277651"/>
        <path id="Path_328" data-name="Path 328" d="M1445.446,7190.777v22.29H1473.7l-44.018,44.019h31.523l28.257-28.257v28.257h22.29v-66.309Z" fill="#277651"/>
        <path id="Path_329" data-name="Path 329" d="M1267.646,7190.777v22.29H1295.9l-44.018,44.019h31.522l28.257-28.257v28.257h22.29v-66.309Z" fill="#277651"/>
        <path id="Path_330" data-name="Path 330" d="M1087.779,7190.777v22.29h28.257l-44.018,44.019h31.522l28.257-28.257v28.257h22.29v-66.309Z" fill="#277651"/>
        <path id="Path_331" data-name="Path 331" d="M909.978,7190.777v22.29h28.257l-44.018,44.019H925.74L954,7228.829v28.257h22.29v-66.309Z" fill="#277651"/>
        <path id="Path_332" data-name="Path 332" d="M730.112,7190.777v22.29h28.257l-44.018,44.019h31.523l28.257-28.257v28.257h22.29v-66.309Z" fill="#277651"/>
        <path id="Path_333" data-name="Path 333" d="M552.311,7190.777v22.29h28.257l-44.018,44.019h31.523l28.257-28.257v28.257h22.29v-66.309Z" fill="#277651"/>
        <path id="Path_334" data-name="Path 334" d="M457.626,7438.684v-22.29H429.369l44.018-44.019H441.865l-28.257,28.257v-28.257h-22.29v66.309Z" fill="#277651"/>
        <path id="Path_335" data-name="Path 335" d="M637.493,7438.684v-22.29H609.236l44.018-44.019H621.732l-28.257,28.257v-28.257h-22.29v66.309Z" fill="#277651"/>
        <path id="Path_336" data-name="Path 336" d="M817.36,7438.684v-22.29H789.1l44.018-44.019H801.6l-28.257,28.257v-28.257h-22.29v66.309Z" fill="#277651"/>
        <path id="Path_337" data-name="Path 337" d="M995.16,7438.684v-22.29H966.9l44.018-44.019H979.4l-28.257,28.257v-28.257h-22.29v66.309Z" fill="#277651"/>
        <path id="Path_338" data-name="Path 338" d="M1172.961,7438.684v-22.29H1144.7l44.018-44.019H1157.2l-28.257,28.257v-28.257h-22.29v66.309Z" fill="#277651"/>
        <path id="Path_339" data-name="Path 339" d="M1352.828,7438.684v-22.29h-28.257l44.018-44.019h-31.522l-28.257,28.257v-28.257h-22.29v66.309Z" fill="#277651"/>
        <path id="Path_340" data-name="Path 340" d="M1530.628,7438.684v-22.29h-28.257l44.018-44.019h-31.523l-28.257,28.257v-28.257h-22.29v66.309Z" fill="#277651"/>
        <path id="Path_341" data-name="Path 341" d="M1712.562,7438.684v-22.29H1684.3l44.018-44.019H1696.8l-28.257,28.257v-28.257h-22.29v66.309Z" fill="#277651"/>
        <path id="Path_342" data-name="Path 342" d="M1889.329,7438.684v-22.29h-28.257l44.018-44.019h-31.522l-28.257,28.257v-28.257h-22.29v66.309Z" fill="#277651"/>
        <path id="Path_343" data-name="Path 343" d="M1740.582,7372.375v22.29h28.257l-44.018,44.019h31.522l28.257-28.257v28.257h22.29v-66.309Z" fill="#277651"/>
        <path id="Path_344" data-name="Path 344" d="M2066.1,7438.684v-22.29h-28.257l44.018-44.019h-31.522l-28.257,28.257v-28.257h-22.29v66.309Z" fill="#277651"/>
        <path id="Path_345" data-name="Path 345" d="M1917.349,7372.375v22.29h28.257l-44.018,44.019h31.523l28.257-28.257v28.257h22.29v-66.309Z" fill="#277651"/>
        <path id="Path_346" data-name="Path 346" d="M1563.814,7372.375v22.29h28.257l-44.018,44.019h31.522l28.257-28.257v28.257h22.29v-66.309Z" fill="#277651"/>
        <path id="Path_347" data-name="Path 347" d="M1381.881,7372.375v22.29h28.257l-44.018,44.019h31.523l28.257-28.257v28.257h22.29v-66.309Z" fill="#277651"/>
        <path id="Path_348" data-name="Path 348" d="M1204.081,7372.375v22.29h28.257l-44.018,44.019h31.522l28.257-28.257v28.257h22.29v-66.309Z" fill="#277651"/>
        <path id="Path_349" data-name="Path 349" d="M1024.214,7372.375v22.29h28.257l-44.018,44.019h31.522l28.257-28.257v28.257h22.29v-66.309Z" fill="#277651"/>
        <path id="Path_350" data-name="Path 350" d="M846.413,7372.375v22.29H874.67l-44.018,44.019h31.523l28.257-28.257v28.257h22.29v-66.309Z" fill="#277651"/>
        <path id="Path_351" data-name="Path 351" d="M666.546,7372.375v22.29H694.8l-44.018,44.019h31.523l28.257-28.257v28.257h22.29v-66.309Z" fill="#277651"/>
        <path id="Path_352" data-name="Path 352" d="M488.746,7372.375v22.29H517l-44.018,44.019h31.523l28.257-28.257v28.257h22.29v-66.309Z" fill="#277651"/>
        <path id="Path_353" data-name="Path 353" d="M207.659,7620.283v-22.29H179.4l44.018-44.019H191.9l-28.257,28.257v-28.257H141.35v66.309Z" fill="#277651"/>
        <path id="Path_354" data-name="Path 354" d="M387.526,7620.283v-22.29H359.269l44.018-44.019H371.764l-28.257,28.257v-28.257h-22.29v66.309Z" fill="#277651"/>
        <path id="Path_355" data-name="Path 355" d="M567.393,7620.283v-22.29H539.135l44.018-44.019H551.631l-28.257,28.257v-28.257h-22.29v66.309Z" fill="#277651"/>
        <path id="Path_356" data-name="Path 356" d="M745.193,7620.283v-22.29H716.936l44.018-44.019H729.432l-28.257,28.257v-28.257h-22.29v66.309Z" fill="#277651"/>
        <path id="Path_357" data-name="Path 357" d="M922.993,7620.283v-22.29H894.736l44.018-44.019H907.232l-28.257,28.257v-28.257h-22.29v66.309Z" fill="#277651"/>
        <path id="Path_358" data-name="Path 358" d="M1102.86,7620.283v-22.29H1074.6l44.018-44.019H1087.1l-28.257,28.257v-28.257h-22.29v66.309Z" fill="#277651"/>
        <path id="Path_359" data-name="Path 359" d="M1280.661,7620.283v-22.29H1252.4l44.018-44.019H1264.9l-28.257,28.257v-28.257h-22.29v66.309Z" fill="#277651"/>
        <path id="Path_360" data-name="Path 360" d="M1462.594,7620.283v-22.29h-28.257l44.018-44.019h-31.523l-28.257,28.257v-28.257h-22.29v66.309Z" fill="#277651"/>
        <path id="Path_361" data-name="Path 361" d="M1639.361,7620.283v-22.29H1611.1l44.018-44.019H1623.6l-28.257,28.257v-28.257h-22.29v66.309Z" fill="#277651"/>
        <path id="Path_362" data-name="Path 362" d="M1490.614,7553.974v22.291h28.257l-44.018,44.018h31.523l28.257-28.257v28.257h22.29v-66.309Z" fill="#277651"/>
        <path id="Path_363" data-name="Path 363" d="M1816.128,7620.283v-22.29h-28.257l44.018-44.019h-31.522l-28.257,28.257v-28.257h-22.29v66.309Z" fill="#277651"/>
        <path id="Path_364" data-name="Path 364" d="M1667.381,7553.974v22.291h28.257l-44.018,44.018h31.523l28.257-28.257v28.257h22.29v-66.309Z" fill="#277651"/>
        <path id="Path_365" data-name="Path 365" d="M1313.847,7553.974v22.291H1342.1l-44.018,44.018h31.523l28.257-28.257v28.257h22.29v-66.309Z" fill="#277651"/>
        <path id="Path_366" data-name="Path 366" d="M1131.914,7553.974v22.291h28.257l-44.018,44.018h31.522l28.257-28.257v28.257h22.29v-66.309Z" fill="#277651"/>
        <path id="Path_367" data-name="Path 367" d="M954.113,7553.974v22.291H982.37l-44.018,44.018h31.523l28.257-28.257v28.257h22.29v-66.309Z" fill="#277651"/>
        <path id="Path_368" data-name="Path 368" d="M774.246,7553.974v22.291H802.5l-44.018,44.018h31.523l28.257-28.257v28.257h22.29v-66.309Z" fill="#277651"/>
        <path id="Path_369" data-name="Path 369" d="M596.446,7553.974v22.291H624.7l-44.018,44.018h31.523l28.257-28.257v28.257h22.29v-66.309Z" fill="#277651"/>
        <path id="Path_370" data-name="Path 370" d="M416.579,7553.974v22.291h28.257l-44.018,44.018H432.34l28.257-28.257v28.257h22.29v-66.309Z" fill="#277651"/>
        <path id="Path_371" data-name="Path 371" d="M238.779,7553.974v22.291h28.257l-44.018,44.018H254.54l28.257-28.257v28.257h22.29v-66.309Z" fill="#277651"/>
        <path id="Path_372" data-name="Path 372" d="M553.223,7529.483v-22.29H524.966l44.018-44.019H537.462L509.2,7491.432v-28.257h-22.29v66.309Z" fill="#277651"/>
        <path id="Path_373" data-name="Path 373" d="M733.09,7529.483v-22.29H704.833l44.018-44.019H717.329l-28.257,28.257v-28.257h-22.29v66.309Z" fill="#277651"/>
        <path id="Path_374" data-name="Path 374" d="M912.957,7529.483v-22.29H884.7l44.018-44.019H897.2l-28.257,28.257v-28.257h-22.29v66.309Z" fill="#277651"/>
        <path id="Path_375" data-name="Path 375" d="M1090.758,7529.483v-22.29H1062.5l44.018-44.019H1075l-28.257,28.257v-28.257h-22.29v66.309Z" fill="#277651"/>
        <path id="Path_376" data-name="Path 376" d="M1268.558,7529.483v-22.29H1240.3l44.018-44.019H1252.8l-28.257,28.257v-28.257h-22.29v66.309Z" fill="#277651"/>
        <path id="Path_377" data-name="Path 377" d="M1448.425,7529.483v-22.29h-28.257l44.018-44.019h-31.523l-28.257,28.257v-28.257h-22.29v66.309Z" fill="#277651"/>
        <path id="Path_378" data-name="Path 378" d="M1626.225,7529.483v-22.29h-28.257l44.018-44.019h-31.522l-28.257,28.257v-28.257h-22.29v66.309Z" fill="#277651"/>
        <path id="Path_379" data-name="Path 379" d="M1808.159,7529.483v-22.29H1779.9l44.018-44.019H1792.4l-28.257,28.257v-28.257h-22.29v66.309Z" fill="#277651"/>
        <path id="Path_380" data-name="Path 380" d="M1984.926,7529.483v-22.29h-28.257l44.018-44.019h-31.523l-28.257,28.257v-28.257h-22.29v66.309Z" fill="#277651"/>
        <path id="Path_381" data-name="Path 381" d="M1836.179,7463.175v22.291h28.257l-44.018,44.018h31.523l28.257-28.257v28.257h22.29v-66.309Z" fill="#277651"/>
        <path id="Path_382" data-name="Path 382" d="M2161.693,7529.483v-22.29h-28.257l44.018-44.019h-31.522l-28.257,28.257v-28.257h-22.29v66.309Z" fill="#277651"/>
        <path id="Path_383" data-name="Path 383" d="M2012.946,7463.175v22.291H2041.2l-44.018,44.018h31.522l28.257-28.257v28.257h22.29v-66.309Z" fill="#277651"/>
        <path id="Path_384" data-name="Path 384" d="M1659.412,7463.175v22.291h28.257l-44.018,44.018h31.523l28.257-28.257v28.257h22.29v-66.309Z" fill="#277651"/>
        <path id="Path_385" data-name="Path 385" d="M1477.478,7463.175v22.291h28.257l-44.018,44.018h31.522l28.257-28.257v28.257h22.29v-66.309Z" fill="#277651"/>
        <path id="Path_386" data-name="Path 386" d="M1299.678,7463.175v22.291h28.257l-44.018,44.018h31.523l28.257-28.257v28.257h22.29v-66.309Z" fill="#277651"/>
        <path id="Path_387" data-name="Path 387" d="M1119.811,7463.175v22.291h28.257l-44.018,44.018h31.523l28.257-28.257v28.257h22.29v-66.309Z" fill="#277651"/>
        <path id="Path_388" data-name="Path 388" d="M942.01,7463.175v22.291h28.257l-44.018,44.018h31.523l28.257-28.257v28.257h22.29v-66.309Z" fill="#277651"/>
        <path id="Path_389" data-name="Path 389" d="M762.144,7463.175v22.291H790.4l-44.018,44.018H777.9l28.257-28.257v28.257h22.29v-66.309Z" fill="#277651"/>
        <path id="Path_390" data-name="Path 390" d="M584.343,7463.175v22.291H612.6l-44.018,44.018H600.1l28.257-28.257v28.257h22.29v-66.309Z" fill="#277651"/>
      </g>
    </g>
  </g>
</svg>
