<svg xmlns="http://www.w3.org/2000/svg" xmlns:xlink="http://www.w3.org/1999/xlink" width="1280" height="278.531" viewBox="0 0 1280 278.531">
  <defs>
    <clipPath id="clip-path">
      <rect id="Rectangle_787" data-name="Rectangle 787" width="1280" height="278.531" transform="translate(1884.839 1000.944)" fill="none"/>
    </clipPath>
  </defs>
  <g id="Group_699" data-name="Group 699" transform="translate(-1884.839 -1000.944)" opacity="0.15" style="mix-blend-mode: multiply;isolation: isolate">
    <g id="Group_698" data-name="Group 698" clip-path="url(#clip-path)">
      <path id="Path_844" data-name="Path 844" d="M1884.059,1108.123V1129.7h27.347l-42.6,42.6h30.507l27.347-27.347V1172.3h21.572v-64.172Z" fill="#515151"/>
      <path id="Path_845" data-name="Path 845" d="M1968.571,1023.611v21.572h27.347l-42.6,42.6h30.507l27.347-27.346v27.346h21.572v-64.172Z" fill="#515151"/>
      <path id="Path_846" data-name="Path 846" d="M2135.289,1109.627v-21.572h-27.347l42.6-42.6h-30.507l-27.347,27.346v-27.346h-21.572v64.172Z" fill="#515151"/>
      <path id="Path_847" data-name="Path 847" d="M2224.073,1020.844V999.272h-27.347l42.6-42.6H2208.82l-27.347,27.346V956.672H2159.9v64.172Z" fill="#515151"/>
      <path id="Path_848" data-name="Path 848" d="M2050.777,1194.139v-21.572h-27.347l42.6-42.6h-30.507l-27.347,27.347v-27.347h-21.572v64.172Z" fill="#515151"/>
      <path id="Path_849" data-name="Path 849" d="M1964.992,1279.925v-21.572h-27.347l42.6-42.6h-30.507l-27.347,27.347v-27.347h-21.572v64.172Z" fill="#515151"/>
      <path id="Path_850" data-name="Path 850" d="M2113.508,1136.14v21.572h27.347l-42.6,42.6h30.507l27.347-27.347v27.347h21.572V1136.14Z" fill="#515151"/>
      <path id="Path_851" data-name="Path 851" d="M2025.131,1224.516v21.572h27.347l-42.6,42.6h30.507l27.347-27.346v27.346H2089.3v-64.172Z" fill="#515151"/>
      <path id="Path_852" data-name="Path 852" d="M2198.02,1051.628V1073.2h27.347l-42.6,42.6h30.507l27.347-27.347V1115.8h21.572v-64.172Z" fill="#515151"/>
      <path id="Path_853" data-name="Path 853" d="M2283.806,965.842v21.572h27.347l-42.6,42.6h30.507l27.347-27.346v27.346h21.572V965.842Z" fill="#515151"/>
      <path id="Path_854" data-name="Path 854" d="M2364.738,1137.644v-21.572h-27.347l42.6-42.6h-30.507l-27.347,27.347v-27.347h-21.572v64.172Z" fill="#515151"/>
      <path id="Path_855" data-name="Path 855" d="M2453.522,1048.86v-21.572h-27.347l42.6-42.6h-30.507l-27.347,27.346V984.688h-21.572v64.172Z" fill="#515151"/>
      <path id="Path_856" data-name="Path 856" d="M2280.226,1222.156v-21.572h-27.347l42.6-42.6h-30.507l-27.347,27.347v-27.347h-21.572v64.172Z" fill="#515151"/>
      <path id="Path_857" data-name="Path 857" d="M2194.44,1307.942V1286.37h-27.347l42.6-42.6h-30.507l-27.347,27.346v-27.346h-21.572v64.172Z" fill="#515151"/>
      <path id="Path_858" data-name="Path 858" d="M1916.688,1052.93v-21.572h-27.347l42.6-42.6h-30.507l-27.347,27.346V988.758h-21.572v64.172Z" fill="#515151"/>
      <path id="Path_859" data-name="Path 859" d="M2411.9,1108.123V1129.7h27.347l-42.6,42.6h30.507l27.347-27.347V1172.3h21.572v-64.172Z" fill="#515151"/>
      <path id="Path_860" data-name="Path 860" d="M2323.523,1196.5v21.572h27.347l-42.6,42.6h30.507l27.347-27.347v27.347h21.572V1196.5Z" fill="#515151"/>
      <path id="Path_861" data-name="Path 861" d="M2496.412,1023.611v21.572h27.347l-42.6,42.6h30.507l27.347-27.346v27.346h21.572v-64.172Z" fill="#515151"/>
      <path id="Path_862" data-name="Path 862" d="M2663.13,1109.627v-21.572h-27.347l42.6-42.6h-30.507l-27.347,27.346v-27.346h-21.572v64.172Z" fill="#515151"/>
      <path id="Path_863" data-name="Path 863" d="M2751.913,1020.844V999.272h-27.347l42.6-42.6H2736.66l-27.347,27.346V956.672h-21.572v64.172Z" fill="#515151"/>
      <path id="Path_864" data-name="Path 864" d="M2578.617,1194.139v-21.572h-27.347l42.6-42.6h-30.507l-27.347,27.347v-27.347h-21.572v64.172Z" fill="#515151"/>
      <path id="Path_865" data-name="Path 865" d="M2492.832,1279.925v-21.572h-27.347l42.6-42.6h-30.507l-27.347,27.347v-27.347H2428.66v64.172Z" fill="#515151"/>
      <path id="Path_866" data-name="Path 866" d="M2641.348,1136.14v21.572h27.347l-42.6,42.6H2656.6l27.347-27.347v27.347h21.572V1136.14Z" fill="#515151"/>
      <path id="Path_867" data-name="Path 867" d="M2552.971,1224.516v21.572h27.347l-42.6,42.6h30.507l27.347-27.346v27.346h21.572v-64.172Z" fill="#515151"/>
      <path id="Path_868" data-name="Path 868" d="M2725.86,1051.628V1073.2h27.347l-42.6,42.6h30.507l27.347-27.347V1115.8h21.572v-64.172Z" fill="#515151"/>
      <path id="Path_869" data-name="Path 869" d="M2811.646,965.842v21.572h27.347l-42.6,42.6H2826.9l27.347-27.346v27.346h21.572V965.842Z" fill="#515151"/>
      <path id="Path_870" data-name="Path 870" d="M2892.578,1137.644v-21.572h-27.347l42.6-42.6h-30.507l-27.347,27.347v-27.347h-21.572v64.172Z" fill="#515151"/>
      <path id="Path_871" data-name="Path 871" d="M2981.362,1048.86v-21.572h-27.347l42.6-42.6h-30.507l-27.347,27.346V984.688H2917.19v64.172Z" fill="#515151"/>
      <path id="Path_872" data-name="Path 872" d="M2808.066,1222.156v-21.572h-27.347l42.6-42.6h-30.507l-27.347,27.347v-27.347h-21.572v64.172Z" fill="#515151"/>
      <path id="Path_873" data-name="Path 873" d="M2722.28,1307.942V1286.37h-27.347l42.6-42.6h-30.507l-27.347,27.346v-27.346h-21.572v64.172Z" fill="#515151"/>
      <path id="Path_874" data-name="Path 874" d="M2922.98,1136.14v21.572h27.347l-42.6,42.6h30.507l27.347-27.347v27.347h21.572V1136.14Z" fill="#515151"/>
      <path id="Path_875" data-name="Path 875" d="M2834.6,1224.516v21.572h27.347l-42.6,42.6h30.507l27.347-27.346v27.346h21.572v-64.172Z" fill="#515151"/>
      <path id="Path_876" data-name="Path 876" d="M3130.174,1224.516v21.572h27.347l-42.6,42.6h30.507l27.347-27.346v27.346h21.572v-64.172Z" fill="#515151"/>
      <path id="Path_877" data-name="Path 877" d="M3007.492,1051.628V1073.2h27.347l-42.6,42.6h30.507l27.347-27.347V1115.8h21.572v-64.172Z" fill="#515151"/>
      <path id="Path_878" data-name="Path 878" d="M3093.278,965.842v21.572h27.347l-42.6,42.6h30.507l27.347-27.346v27.346h21.572V965.842Z" fill="#515151"/>
      <path id="Path_879" data-name="Path 879" d="M3174.21,1137.644v-21.572h-27.347l42.6-42.6h-30.507l-27.347,27.347v-27.347h-21.572v64.172Z" fill="#515151"/>
      <path id="Path_880" data-name="Path 880" d="M3089.7,1222.156v-21.572h-27.347l42.6-42.6h-30.507L3047.1,1185.33v-27.347h-21.572v64.172Z" fill="#515151"/>
      <path id="Path_881" data-name="Path 881" d="M3003.912,1307.942V1286.37h-27.347l42.6-42.6h-30.507l-27.347,27.346v-27.346H2939.74v64.172Z" fill="#515151"/>
    </g>
  </g>
</svg>
