<svg version="1.1" id="Layer_1" xmlns="http://www.w3.org/2000/svg" x="0" y="0" viewBox="0 0 152.1 86.3" style="enable-background:new 0 0 152.1 86.3" xml:space="preserve">
  <style>
    .st1{fill:#fff}
  </style>
  <path style="fill:#757575" d="M0 0h152.1v86.3H0z"/>
  <path class="st1" d="M34.3 27c0 6.9-4.7 11.5-11.1 11.5h-8.1v-23h8.1c6.4-.1 11.1 4.5 11.1 11.5zm-4.1 0c0-4.6-2.8-7.7-7-7.7h-4v15.4h4c4.2-.1 7-3.1 7-7.7zM41.6 15.4v23h-4v-23h4zM64.9 27c0 6.9-4.7 11.5-11.1 11.5h-8.1v-23h8.1c6.4-.1 11.1 4.5 11.1 11.5zm-4.1 0c0-4.6-2.8-7.7-7-7.7h-4v15.4h4c4.2-.1 7-3.1 7-7.7zM85.5 29.3v9.2h-4v-9.2l-7.9-13.9H78l5.5 10.2h.1l5.6-10.2h4.3l-8 13.9zM93.3 27c0-6.6 4.7-11.8 11.6-11.8 6.9 0 11.6 5.3 11.6 11.8 0 6.6-4.7 11.8-11.6 11.8-6.9 0-11.6-5.2-11.6-11.8zm19.1 0c0-4.4-3.2-7.9-7.5-7.9s-7.5 3.5-7.5 7.9c0 4.5 3.2 7.9 7.5 7.9 3.9 0 7.5-3.4 7.5-7.9zM137.5 29.9c0 5.3-3.7 8.9-9 8.9s-9-3.6-9-8.9V15.4h4v14.3c0 3.4 2 5.1 5 5.1 3.3 0 5-2.1 5-5.1V15.4h4v14.5z"/>
  <g>
    <path class="st1" d="m23.3 57 12.2 12.7h-6.2l-9.6-11h-.1v11h-4.3V44.8h4.3v10.4h.1l9.5-10.4h6L23.3 57zM58.8 69.6h-4.2L42.7 52.2h-.1v17.4h-4.3V44.8h4.2l11.9 17.4h.1V44.8h4.3v24.8zM61.4 57.2c0-7.1 5.1-12.8 12.5-12.8s12.5 5.7 12.5 12.8c0 7.1-5.1 12.8-12.5 12.8s-12.5-5.7-12.5-12.8zm20.5 0c0-4.8-3.4-8.5-8-8.5s-8 3.8-8 8.5c0 4.9 3.4 8.5 8 8.5 4.2.1 8-3.6 8-8.5zM113.6 69.6h-4.4L104 51.5h-.1l-5.2 18.1h-4.4l-7.7-24.8h5l4.9 18.1h.1l5.3-18.1h4.2l5.3 18.1h.1l5.1-18.1h4.8l-7.8 24.8zM135.4 58c-1.5 1.3-2.5 1.8-2.5 3.9v1.4h-4.3v-1.9c0-2.7 1.4-3.9 3.8-6 1.4-1.2 1.9-2.1 1.9-3.8 0-1.7-1.3-3.1-3.4-3.1-2 0-3.3 1.3-3.6 3.3h-4.6c.3-4.4 3.3-7.4 8.2-7.4 4.8 0 7.8 3.4 7.8 7.4 0 2.8-1.1 4.4-3.3 6.2zm-7.5 9.1c0-1.5 1.2-2.8 2.8-2.8 1.6 0 2.8 1.2 2.8 2.8 0 1.6-1.2 2.8-2.8 2.8-1.5 0-2.8-1.2-2.8-2.8z"/>
  </g>
</svg>
